<svg viewBox="0 0 512 512" xmlns:xlink="http://www.w3.org/1999/xlink" xmlns="http://www.w3.org/2000/svg"><g><g><g><g><g><g><g><g><g><g><g><circle style="fill:#00C8C8;" cx="256" cy="256" r="256"></circle></g></g></g></g></g></g></g></g></g></g><path style="fill:#00B5B0;" d="M512,256c0-6.281-0.237-12.507-0.682-18.675L360.676,86.683L149.689,424l87.297,87.297 C243.264,511.758,249.604,512,256,512C397.385,512,512,397.385,512,256z"></path><g><path style="fill:#495F7A;" d="M339.522,432.382H172.478c-19.442,0-35.203-15.761-35.203-35.203V114.821 c0-19.442,15.761-35.203,35.203-35.203h167.045c19.442,0,35.203,15.761,35.203,35.203v282.358 C374.725,416.621,358.965,432.382,339.522,432.382z"></path></g><g><path style="fill:#31465B;" d="M339.522,79.618h-83.618v352.764h83.618c19.442,0,35.203-15.761,35.203-35.203V114.821 C374.725,95.379,358.965,79.618,339.522,79.618z"></path></g><g><rect x="166.5" y="111" style="fill:#FFFFFF;" width="179" height="269"></rect></g><g><rect x="255.905" y="111" style="fill:#E9EDF5;" width="89.595" height="269"></rect></g><g><circle style="fill:#31465B;" cx="256" cy="407" r="17"></circle></g><g><path style="fill:#1B2C3A;" d="M256,390c-0.032,0-0.063,0.005-0.095,0.005v33.99c0.032,0,0.063,0.005,0.095,0.005 c9.389,0,17-7.611,17-17S265.389,390,256,390z"></path></g><g><rect x="202.362" y="191.883" style="fill:#DCE1EB;" width="107.275" height="107.275"></rect></g><g><rect x="255.905" y="191.883" style="fill:#CDD2E1;" width="53.733" height="107.275"></rect></g><g><polygon style="fill:#FF583E;" points="231.574,297.313 185.036,250.775 211.199,224.612 231.574,244.987 300.801,175.76 326.964,201.923 "></polygon></g><g><polygon style="fill:#EF2A1B;" points="300.801,175.76 255.905,220.657 255.905,272.982 326.964,201.923 "></polygon></g></g></svg>