<svg viewBox="-63 0 479 480" xmlns="http://www.w3.org/2000/svg"><path d="m224.5 200h88v80h-88zm0 0" fill="#807b75"></path><path d="m224.5 280h88v72h-88zm0 0" fill="#b79f86"></path><path d="m40.5 200h88v80h-88zm0 0" fill="#807b75"></path><path d="m40.5 280h88v72h-88zm0 0" fill="#b79f86"></path><path d="m112.5 136h128v32h-128zm0 0" fill="#68635e"></path><path d="m128.5 168h96v64h-96zm0 0" fill="#b79f86"></path><path d="m168.5 0h16v64h-16zm0 0" fill="#4f4b47"></path><path d="m154.898438 16h43.203124v16h-43.203124zm0 0" fill="#4f4b47"></path><path d="m272.5 304v-24l-96-96-96 96v24l-64 64v104h320v-104zm0 0" fill="#cfb9a0"></path><path d="m216.5 304h-24v-28.800781c0-3.199219-2.398438-6.398438-5.601562-7.199219l-10.398438-3.199219-10.398438 3.199219c-3.203124.800781-5.601562 4-5.601562 7.199219v28.800781h-24v-16h8v-12.800781c0-10.398438 6.398438-19.199219 16.800781-22.398438l15.199219-4.800781 15.199219 4.800781c9.601562 3.199219 16.800781 12.800781 16.800781 22.398438v12.800781h8zm0 0" fill="#99836e"></path><path d="m152.5 320h16v24h-16zm0 0" fill="#4f4b47"></path><path d="m184.5 320h16v24h-16zm0 0" fill="#4f4b47"></path><path d="m128.5 440h-32v-104c0-8.800781 7.199219-16 16-16s16 7.199219 16 16zm0 0" fill="#99836e"></path><path d="m256.5 440h-32v-104c0-8.800781 7.199219-16 16-16s16 7.199219 16 16zm0 0" fill="#99836e"></path><g fill="#4f4b47"><path d="m48.5 368h16v24h-16zm0 0"></path><path d="m48.5 408h16v24h-16zm0 0"></path><path d="m288.5 368h16v24h-16zm0 0"></path><path d="m288.5 408h16v24h-16zm0 0"></path></g><path d="m.5 464h352v16h-352zm0 0" fill="#b79f86"></path><path d="m176.5 48-64 88h128zm0 0" fill="#807b75"></path></svg>