<svg viewBox="0 0 66 68"><title>356872</title><g fill-rule="nonzero" fill="none"><path d="M23 8.261h39v53.217H23z" fill="#FF1B63"></path><g fill="#FFF"><path d="M44.824 37.316v2.607h3.67c-1.42 1.972-3.713 3.26-6.301 3.26-3.517 0-6.497-2.37-7.471-5.617l-2.3 1.255c1.436 4.062 5.267 6.968 9.77 6.968 3.357 0 6.34-1.617 8.236-4.125v4.011H53v-8.36h-8.176zM38.495 31.06l-2.444 1.471c1.018-3.335 3.842-5.74 7.16-5.74 2.716 0 5.1 1.61 6.436 4.021l2.142-1.432C50.02 26.153 46.841 24 43.212 24c-4.515 0-8.331 3.332-9.605 7.918l-1.412-2.938L30 30.302l3.37 7.014 6.306-3.8-1.181-2.456z"></path></g><path fill="#DCE1E2" d="M34.74 5L33 6.74l1.74 1.738h27.672v53.218h3.479V5z"></path><path fill="#DCE1E2" d="M20 5v56.696h3.478V8.478H39.13V5z"></path><g><path fill="#687EFF" d="M.304 67.74h3.479L5.522 34 3.782.26H.305z"></path><path fill="url(#what-you-get-01-a)" d="M24.652 8.26l-10.435-4L10.74 34l3.478 30.609 10.435-3.13z"></path><path fill="#364ABB" d="M3.783.26v67.48l10.434-3.131V4.26z"></path><circle fill="#687EFF" cx="9" cy="34" r="1.739"></circle></g></g></svg>