<svg viewBox="0 0 72 72"><title>Group 3</title><g fill="none" fill-rule="evenodd"><circle fill="#7DA2F0" fill-rule="nonzero" cx="36" cy="36" r="36"></circle><g fill="#B5CDFF" fill-rule="nonzero"><path d="M52.204 40H37.296A5.296 5.296 0 0 0 32 45.296v7.452a5.296 5.296 0 0 0 5.296 5.296h14.908a5.296 5.296 0 0 0 5.296-5.296v-7.452A5.296 5.296 0 0 0 52.204 40zm-3.582 9.385L41.65 52.71a.28.28 0 0 1-.4-.252v-6.86a.28.28 0 0 1 .406-.25l6.973 3.534a.28.28 0 0 1-.006.503z"></path><g transform="translate(33 10)"><path d="M15.506 0H7.048A7.049 7.049 0 0 0 0 7.048v8.458a7.049 7.049 0 0 0 7.048 7.048h8.458a7.049 7.049 0 0 0 7.048-7.048V7.048A7.049 7.049 0 0 0 15.506 0zm4.934 15.506a4.94 4.94 0 0 1-4.934 4.934H7.048a4.94 4.94 0 0 1-4.934-4.934V7.048a4.94 4.94 0 0 1 4.934-4.934h8.458a4.94 4.94 0 0 1 4.934 4.934v8.458z"></path><path d="M11.277 5.639a5.639 5.639 0 1 0 0 11.277 5.639 5.639 0 0 0 0-11.277zm0 9.162a3.529 3.529 0 0 1-3.524-3.524 3.528 3.528 0 0 1 3.524-3.524 3.528 3.528 0 0 1 3.524 3.524 3.529 3.529 0 0 1-3.524 3.524z"></path><circle cx="17.338" cy="5.216" r="1"></circle></g></g><path d="M19.598 53.979c-.28 0-.54-.111-.73-.31l-2.59-2.724a1 1 0 1 1 1.45-1.38l1.81 1.906 5.01-6.105a.998.998 0 0 1 1.54 1.268l-5.72 6.98c-.18.22-.45.354-.74.365h-.03M19.598 25.979c-.28 0-.54-.111-.73-.31l-2.59-2.724a1 1 0 1 1 1.45-1.38l1.81 1.906 5.01-6.105a.998.998 0 0 1 1.54 1.268l-5.72 6.98c-.18.22-.45.354-.74.365h-.03" fill="#FFF"></path></g></svg>