<svg viewBox="0 0 76 67"><title>726488</title><g fill-rule="nonzero" fill="none"><path d="M76 38.128v23.62a4.752 4.752 0 0 1-4.75 4.75H4.75A4.755 4.755 0 0 1 0 61.749v-42.75a4.758 4.758 0 0 1 4.75-4.75h28.5v4.75c0 14.878 5.695 23.936 20.334 32.315a7.224 7.224 0 0 0 7.124-.01C67.768 47.272 72.74 43.068 76 38.129z" fill="#3D51C4"></path><path d="M33.465 23.749c.525 5.487 2.029 10.125 4.723 14.25H0v-14.25h33.465z" fill="#363636"></path><path d="M21.375 52.249h-9.5a2.376 2.376 0 0 1 0-4.75h9.5a2.376 2.376 0 0 1 0 4.75z" fill="#FAFAFA"></path><path d="M74.56 7.319L57.937.194a2.384 2.384 0 0 0-1.877 0L39.436 7.319A2.37 2.37 0 0 0 38 9.499v9.5c0 13.067 4.83 20.705 17.817 28.186a2.383 2.383 0 0 0 2.366 0C71.169 39.723 76 32.085 76 19v-9.5c0-.95-.565-1.81-1.44-2.18z" fill="url(#what-you-get-03-a)"></path><path d="M54.625 30.874h-.1a2.384 2.384 0 0 1-1.876-1.055l-4.75-7.125a2.375 2.375 0 0 1 3.952-2.631l2.95 4.422 7.467-9.338a2.386 2.386 0 0 1 3.339-.37 2.377 2.377 0 0 1 .37 3.338l-9.5 11.875a2.394 2.394 0 0 1-1.852.884z" fill="#FAFAFA"></path></g></svg>