<svg viewBox="0 0 80 80"><title>755195</title><g fill="none" fill-rule="evenodd"><path d="M22.06 9.644L15.18.01h22.02l-6.88 9.634c9.88 0 17.89 8.01 17.89 17.892v15.221a5.41 5.41 0 0 0 .579 2.45l3.069 4.941a3.219 3.219 0 0 1-2.725 4.913H3.246a3.219 3.219 0 0 1-2.725-4.913l3.07-4.94c.382-.76.58-1.6.577-2.45V27.535c0-9.882 8.01-17.892 17.892-17.892z" transform="translate(13.723)" fill="url(#what-you-get-02-a)" fill-rule="nonzero"></path><path d="M40.16 32.208c1.944 0 2.928-.864 2.928-2.616v-.096c0-1.824-1.08-2.544-2.904-2.544h-1.968v5.256h1.944zm-1.944 5.712v3.24h-3.888v-3.24H32v-1.584h2.328v-1.488H32v-1.584h2.328V24h5.928c4.224 0 6.576 1.824 6.576 5.472v.096c0 3.624-2.52 5.376-6.432 5.376h-2.184v1.392h5.256v1.584h-5.256z" fill="#FFF"></path><g fill="#FDB62F" fill-rule="nonzero"><path d="M67.438 13.773a6.688 6.688 0 0 0-5.505-5.506 6.688 6.688 0 0 0 5.505-5.505 6.688 6.688 0 0 0 5.505 5.505 6.689 6.689 0 0 0-5.505 5.506zM5.505 41.298A6.688 6.688 0 0 0 0 35.793a6.688 6.688 0 0 0 5.505-5.505 6.688 6.688 0 0 0 5.505 5.505 6.688 6.688 0 0 0-5.505 5.505z"></path></g><path d="M79.233 48.029a4.129 4.129 0 0 0-5.505-1.528l-19.53 8.34a2.762 2.762 0 0 1-1.087.22H28.902a2.752 2.752 0 1 1 0-5.505h11.01a8.257 8.257 0 0 0 8.258-8.258H25.27a12.514 12.514 0 0 0-9.758 4.694L6.88 56.438l9.717 17.809 37.394-8.987a19.86 19.86 0 0 0 4.652-1.707l19.268-9.868a4.127 4.127 0 0 0 1.32-5.656z" fill="#FEC9A3" fill-rule="nonzero"></path><path d="M13.501 68.577l3.097 5.67 37.394-8.987a19.86 19.86 0 0 0 4.652-1.707L69.062 58.2c-17.314 5.299-40.298 8.602-55.56 10.378z" fill="#F7BB8F" fill-rule="nonzero"></path><path fill="#FF1B63" fill-rule="nonzero" d="M0 55.061v24.774h17.892l4.129-4.13L5.505 50.934z"></path><path d="M0 79.835h17.892l4.129-4.13-3.028-4.541A97.333 97.333 0 0 1 0 76.821v3.014z" fill="#D90044" fill-rule="nonzero"></path><circle fill="#D9D9D9" fill-rule="nonzero" cx="12.387" cy="72.957" r="2.753"></circle></g></svg>