<svg xmlns="http://www.w3.org/2000/svg" xmlns:xlink="http://www.w3.org/1999/xlink" version="1.1" xml:space="preserve">	<symbol id="svg_2020_06_flash" viewBox="0 0 512 512"><g><g><path d="M400.268,175.599c-1.399-3.004-4.412-4.932-7.731-4.932h-101.12l99.797-157.568c1.664-2.628,1.766-5.956,0.265-8.678 C389.977,1.69,387.109,0,384.003,0H247.47c-3.234,0-6.187,1.826-7.637,4.719l-128,256c-1.323,2.637-1.178,5.777,0.375,8.294 c1.562,2.517,4.301,4.053,7.262,4.053h87.748l-95.616,227.089c-1.63,3.883-0.179,8.388,3.413,10.59 c1.382,0.845,2.918,1.254,4.446,1.254c2.449,0,4.864-1.05,6.537-3.029l273.067-324.267 C401.206,182.161,401.667,178.611,400.268,175.599z" fill="#fe2c55"></path></g></g></symbol>
	<symbol id="svg_2020_06_savings" viewBox="0 0 512 512"><circle style="fill:#70B1E1;" cx="256" cy="256" r="256"></circle><g><polygon style="fill:#353944;" points="177.428,444.104 127.416,444.104 127.416,475.8 157.428,475.8 "></polygon><polygon style="fill:#353944;" points="408.468,444.104 358.456,444.104 378.456,475.8 408.468,475.8 "></polygon></g><rect x="67.896" y="36.2" style="fill:#4D535F;" width="400.08" height="411.96"></rect><rect x="104.68" y="75.448" style="fill:#353944;" width="322.32" height="333.48"></rect><rect x="44" y="75.448" style="fill:#656D7A;" width="47.768" height="333.48"></rect><g><circle style="fill:#D2D2D4;" cx="67.896" cy="135.336" r="14.688"></circle><circle style="fill:#D2D2D4;" cx="67.896" cy="206.572" r="14.688"></circle><circle style="fill:#D2D2D4;" cx="67.896" cy="277.8" r="14.688"></circle><circle style="fill:#D2D2D4;" cx="67.896" cy="349.04" r="14.688"></circle></g><path style="fill:#F5EA07;" d="M382.66,335.804c0,63.176-52.276,73.12-116.824,73.12c-64.52,0-116.824-9.944-116.824-73.12 c0-51.94,35.388-116.644,83.816-138.056c-26.764-24.584,31.208,28.148-35.18-32.132c-5.916-5.424-3.616-15.032,4.184-17.356 c3.952-1.188,8.16-2.016,12.604-2.48c2.376-0.284,4.832-0.44,7.336-0.492c-2.396-6.392-0.312-11.116,3.9-13.688 c24.692-14.98,49.98-14.284,75.728,0.18c4.168,2.328,6.768,7.204,4.312,13.508c7.176,0.172,14.276,1.132,21.256,3.384 c7.284,2.352,9.324,11.572,3.976,16.944c-33.012,32.784-32.236,32.08-32.236,32.08C347.196,219.032,382.66,283.812,382.66,335.804z"></path><g><path style="fill:#E8BB20;" d="M256.832,200.032c-2.092,30.176-22.792,62.692-47.816,85.804 c26.768-21.548,50.472-53.612,54.728-85.356c-0.168-0.148-0.324-0.328-0.488-0.48C260.944,200.296,259.16,200.312,256.832,200.032z "></path><path style="fill:#E8BB20;" d="M278.216,200.016c-2.264,0.264-4.02,0.244-6.172-0.02c-0.376,0.184-0.74,0.436-1.116,0.604 c-7.132,31.472,3.148,68.784,19.108,97.488C276.336,269.008,268.092,229.92,278.216,200.016z"></path><path style="fill:#E8BB20;" d="M245.588,201.64c-1.592-0.416-3.084-0.964-4.464-1.64c-0.848,0.464-1.684,0.988-2.54,1.372 c-6.872,30.372,2.356,67.332,19.108,97.488C242.612,266.788,236.68,229.304,245.588,201.64z"></path><path style="fill:#E8BB20;" d="M292.248,200c-1.664,0.728-3.48,1.272-5.432,1.628c3.888,30.544-9.648,65.912-27.972,92.468 c21.54-27.124,36.552-62.304,34.728-93.076C293.116,200.72,292.696,200.324,292.248,200z"></path><path style="fill:#E8BB20;" d="M257.7,202.708c-15.712-15.684-34.764-36.084-43.136-56.616c-0.052-0.104-0.076-0.208-0.128-0.308 c2.376-0.284,4.832-0.44,7.336-0.492c-0.584-1.552-1.024-2.52-1.112-4.184l0.208-0.052 C224.764,160.54,245.06,187.988,257.7,202.708z"></path><path style="fill:#E8BB20;" d="M312.016,145.652c-13.856,13.856-30.372,35.964-24.124,54.628c-0.064-0.092-0.912-1.86-1.136-2.532 c-6.272-18.84,7.76-41.732,19.964-57.288c0.08,2.028-0.356,3.16-1.008,4.828C307.86,145.344,309.976,145.472,312.016,145.652z"></path></g><g><path style="fill:#F1592F;" d="M304.116,201.568c-24.904,6.564-51.084,6.564-75.988,0c-4.64-1.224-2.852-8.392,1.936-7.132 c23.636,6.22,48.48,6.22,72.112,0c1.928-0.508,3.912,0.576,4.468,2.492c0.008,0.024,0.012,0.048,0.02,0.072 C307.236,198.964,306.092,201.048,304.116,201.568z"></path><ellipse style="fill:#F1592F;" cx="263.376" cy="309.36" rx="56.804" ry="67.072"></ellipse><path style="fill:#F1592F;" d="M224.78,240.496c1.928,0,3.436-1.6,3.376-3.528c-0.376-12.34,0.972-24.712,4.14-36.752 c1.152-4.384-5.416-6.036-6.536-1.776c-3.348,12.704-4.776,25.764-4.384,38.784C221.428,239.056,222.956,240.496,224.78,240.496 L224.78,240.496z"></path><path style="fill:#F1592F;" d="M198.4,260.496c3.572-23.564,13.168-45.92,27.856-64.884c2.748-3.548,8.144,0.512,5.328,4.152 c-13.932,18-23.04,39.216-26.436,61.576c-0.276,1.824-1.92,3.136-3.748,2.94c-0.024-0.004-0.044-0.004-0.068-0.008 C199.46,264.076,198.116,262.368,198.4,260.496z"></path></g><path style="fill:#F5EA07;" d="M260.968,354.148v-7.996c-10.004-1.02-18.984-5-26.944-11.936l7.996-9.528 c6.136,5.328,12.452,8.504,18.948,9.528v-21.248c-8.252-1.968-14.292-4.564-18.124-7.776s-5.752-7.976-5.752-14.292 c0-6.316,2.212-11.48,6.628-15.5c4.416-4.016,10.168-6.204,17.252-6.568v-5.476h7.008v5.584c8.032,0.588,15.624,3.324,22.78,8.216 l-7.12,10.076c-4.816-3.432-10.04-5.548-15.66-6.356v20.588h0.328c8.396,1.976,14.564,4.64,18.508,7.996 c3.944,3.36,5.912,8.236,5.912,14.62c0,6.392-2.264,11.596-6.792,15.608c-4.528,4.02-10.512,6.208-17.96,6.572v7.884h-7.008V354.148 z M253.244,283.456c-1.86,1.64-2.788,3.684-2.788,6.132s0.728,4.38,2.188,5.804c1.46,1.428,4.232,2.796,8.324,4.108v-18.948 C257.684,280.844,255.108,281.812,253.244,283.456z M276.304,331.476c2.04-1.676,3.064-3.792,3.064-6.352 c0-2.552-0.808-4.58-2.412-6.08c-1.604-1.496-4.6-2.9-8.98-4.216v19.712C271.48,334.18,274.256,333.156,276.304,331.476z"></path></symbol>
	<symbol id="svg_2020_06_fire" viewBox="0 0 512 512"><g><path d="m454.22 313.78c0 109.47-88.75 198.22-198.22 198.22s-198.22-88.75-198.22-198.22c0-37.65 10.49-72.86 28.74-102.83 0 0 25.24 53.86 68.6 36.45 17.05-6.84 36.46-26.05 18.16-57.74-19.74-34.17-9.27-82.43 34.24-100.9 48.48-20.58 48.48-88.76 48.48-88.76 4.88 3.13 76.59 50.67 50.28 111.89-15.72 36.58-17.6 80.91 15.09 90.71 39.12 11.74 59.77-42.54 59.77-42.54 44.59 36.34 73.08 91.7 73.08 153.72z" fill="#fcd703"></path><path d="m454.22 313.78c0 109.47-88.75 198.22-198.22 198.22v-512c4.88 3.13 76.59 50.67 50.28 111.89-15.72 36.58-17.6 80.91 15.09 90.71 39.12 11.74 59.77-42.54 59.77-42.54 44.59 36.34 73.08 91.7 73.08 153.72z" fill="#fe9100"></path><path d="m351.2 416.82c0 59.92-50.51 95.18-95.2 95.18-52.56 0-95.17-42.61-95.19-95.16 0-.02 0-.02 0-.04-.24-19.81 4.04-43.24 15.97-70.43l38.91 11.38c0-39.56 21.06-66.17 40.31-82.23 16.18-13.48 31.1-19.52 31.1-19.52 4.88 58.84 39.4 93.06 51.47 114.71 10.45 18.76 12.63 30.39 12.63 46.11z" fill="#ff7b49"></path><path d="m351.2 416.82c0 59.92-50.51 95.18-95.2 95.18v-236.48c16.18-13.48 31.1-19.52 31.1-19.52 4.88 58.84 39.4 93.06 51.47 114.71 10.45 18.76 12.63 30.39 12.63 46.11z" fill="#fd435b"></path></g></symbol>
	<symbol id="svg_2020_06_checkmark" viewBox="0 0 512 512"><g><g><g><g><g><g><g><g><g><g><g><circle style="fill:#00C8C8;" cx="256" cy="256" r="256"></circle></g></g></g></g></g></g></g></g></g></g><path style="fill:#00B5B0;" d="M512,256c0-6.281-0.237-12.507-0.682-18.675L360.676,86.683L149.689,424l87.297,87.297 C243.264,511.758,249.604,512,256,512C397.385,512,512,397.385,512,256z"></path><g><path style="fill:#495F7A;" d="M339.522,432.382H172.478c-19.442,0-35.203-15.761-35.203-35.203V114.821 c0-19.442,15.761-35.203,35.203-35.203h167.045c19.442,0,35.203,15.761,35.203,35.203v282.358 C374.725,416.621,358.965,432.382,339.522,432.382z"></path></g><g><path style="fill:#31465B;" d="M339.522,79.618h-83.618v352.764h83.618c19.442,0,35.203-15.761,35.203-35.203V114.821 C374.725,95.379,358.965,79.618,339.522,79.618z"></path></g><g><rect x="166.5" y="111" style="fill:#FFFFFF;" width="179" height="269"></rect></g><g><rect x="255.905" y="111" style="fill:#E9EDF5;" width="89.595" height="269"></rect></g><g><circle style="fill:#31465B;" cx="256" cy="407" r="17"></circle></g><g><path style="fill:#1B2C3A;" d="M256,390c-0.032,0-0.063,0.005-0.095,0.005v33.99c0.032,0,0.063,0.005,0.095,0.005 c9.389,0,17-7.611,17-17S265.389,390,256,390z"></path></g><g><rect x="202.362" y="191.883" style="fill:#DCE1EB;" width="107.275" height="107.275"></rect></g><g><rect x="255.905" y="191.883" style="fill:#CDD2E1;" width="53.733" height="107.275"></rect></g><g><polygon style="fill:#FF583E;" points="231.574,297.313 185.036,250.775 211.199,224.612 231.574,244.987 300.801,175.76 326.964,201.923 "></polygon></g><g><polygon style="fill:#EF2A1B;" points="300.801,175.76 255.905,220.657 255.905,272.982 326.964,201.923 "></polygon></g></g></symbol>
	<symbol id="svg_2020_06_free_access" viewBox="0 0 66 68"><title>356872</title><g fill-rule="nonzero" fill="none"><path d="M23 8.261h39v53.217H23z" fill="#FF1B63"></path><g fill="#FFF"><path d="M44.824 37.316v2.607h3.67c-1.42 1.972-3.713 3.26-6.301 3.26-3.517 0-6.497-2.37-7.471-5.617l-2.3 1.255c1.436 4.062 5.267 6.968 9.77 6.968 3.357 0 6.34-1.617 8.236-4.125v4.011H53v-8.36h-8.176zM38.495 31.06l-2.444 1.471c1.018-3.335 3.842-5.74 7.16-5.74 2.716 0 5.1 1.61 6.436 4.021l2.142-1.432C50.02 26.153 46.841 24 43.212 24c-4.515 0-8.331 3.332-9.605 7.918l-1.412-2.938L30 30.302l3.37 7.014 6.306-3.8-1.181-2.456z"></path></g><path fill="#DCE1E2" d="M34.74 5L33 6.74l1.74 1.738h27.672v53.218h3.479V5z"></path><path fill="#DCE1E2" d="M20 5v56.696h3.478V8.478H39.13V5z"></path><g><path fill="#687EFF" d="M.304 67.74h3.479L5.522 34 3.782.26H.305z"></path><path fill="url(#what-you-get-01-a)" d="M24.652 8.26l-10.435-4L10.74 34l3.478 30.609 10.435-3.13z"></path><path fill="#364ABB" d="M3.783.26v67.48l10.434-3.131V4.26z"></path><circle fill="#687EFF" cx="9" cy="34" r="1.739"></circle></g></g></symbol>
	<symbol id="svg_2020_06_payment_guarantee" viewBox="0 0 76 67"><title>726488</title><g fill-rule="nonzero" fill="none"><path d="M76 38.128v23.62a4.752 4.752 0 0 1-4.75 4.75H4.75A4.755 4.755 0 0 1 0 61.749v-42.75a4.758 4.758 0 0 1 4.75-4.75h28.5v4.75c0 14.878 5.695 23.936 20.334 32.315a7.224 7.224 0 0 0 7.124-.01C67.768 47.272 72.74 43.068 76 38.129z" fill="#3D51C4"></path><path d="M33.465 23.749c.525 5.487 2.029 10.125 4.723 14.25H0v-14.25h33.465z" fill="#363636"></path><path d="M21.375 52.249h-9.5a2.376 2.376 0 0 1 0-4.75h9.5a2.376 2.376 0 0 1 0 4.75z" fill="#FAFAFA"></path><path d="M74.56 7.319L57.937.194a2.384 2.384 0 0 0-1.877 0L39.436 7.319A2.37 2.37 0 0 0 38 9.499v9.5c0 13.067 4.83 20.705 17.817 28.186a2.383 2.383 0 0 0 2.366 0C71.169 39.723 76 32.085 76 19v-9.5c0-.95-.565-1.81-1.44-2.18z" fill="url(#what-you-get-03-a)"></path><path d="M54.625 30.874h-.1a2.384 2.384 0 0 1-1.876-1.055l-4.75-7.125a2.375 2.375 0 0 1 3.952-2.631l2.95 4.422 7.467-9.338a2.386 2.386 0 0 1 3.339-.37 2.377 2.377 0 0 1 .37 3.338l-9.5 11.875a2.394 2.394 0 0 1-1.852.884z" fill="#FAFAFA"></path></g></symbol>
	<symbol id="svg_2020_06_reliable_channel" viewBox="0 0 80 80"><title>755195</title><g fill="none" fill-rule="evenodd"><path d="M22.06 9.644L15.18.01h22.02l-6.88 9.634c9.88 0 17.89 8.01 17.89 17.892v15.221a5.41 5.41 0 0 0 .579 2.45l3.069 4.941a3.219 3.219 0 0 1-2.725 4.913H3.246a3.219 3.219 0 0 1-2.725-4.913l3.07-4.94c.382-.76.58-1.6.577-2.45V27.535c0-9.882 8.01-17.892 17.892-17.892z" transform="translate(13.723)" fill="url(#what-you-get-02-a)" fill-rule="nonzero"></path><path d="M40.16 32.208c1.944 0 2.928-.864 2.928-2.616v-.096c0-1.824-1.08-2.544-2.904-2.544h-1.968v5.256h1.944zm-1.944 5.712v3.24h-3.888v-3.24H32v-1.584h2.328v-1.488H32v-1.584h2.328V24h5.928c4.224 0 6.576 1.824 6.576 5.472v.096c0 3.624-2.52 5.376-6.432 5.376h-2.184v1.392h5.256v1.584h-5.256z" fill="#FFF"></path><g fill="#FDB62F" fill-rule="nonzero"><path d="M67.438 13.773a6.688 6.688 0 0 0-5.505-5.506 6.688 6.688 0 0 0 5.505-5.505 6.688 6.688 0 0 0 5.505 5.505 6.689 6.689 0 0 0-5.505 5.506zM5.505 41.298A6.688 6.688 0 0 0 0 35.793a6.688 6.688 0 0 0 5.505-5.505 6.688 6.688 0 0 0 5.505 5.505 6.688 6.688 0 0 0-5.505 5.505z"></path></g><path d="M79.233 48.029a4.129 4.129 0 0 0-5.505-1.528l-19.53 8.34a2.762 2.762 0 0 1-1.087.22H28.902a2.752 2.752 0 1 1 0-5.505h11.01a8.257 8.257 0 0 0 8.258-8.258H25.27a12.514 12.514 0 0 0-9.758 4.694L6.88 56.438l9.717 17.809 37.394-8.987a19.86 19.86 0 0 0 4.652-1.707l19.268-9.868a4.127 4.127 0 0 0 1.32-5.656z" fill="#FEC9A3" fill-rule="nonzero"></path><path d="M13.501 68.577l3.097 5.67 37.394-8.987a19.86 19.86 0 0 0 4.652-1.707L69.062 58.2c-17.314 5.299-40.298 8.602-55.56 10.378z" fill="#F7BB8F" fill-rule="nonzero"></path><path fill="#FF1B63" fill-rule="nonzero" d="M0 55.061v24.774h17.892l4.129-4.13L5.505 50.934z"></path><path d="M0 79.835h17.892l4.129-4.13-3.028-4.541A97.333 97.333 0 0 1 0 76.821v3.014z" fill="#D90044" fill-rule="nonzero"></path><circle fill="#D9D9D9" fill-rule="nonzero" cx="12.387" cy="72.957" r="2.753"></circle></g></symbol>
	<symbol id="svg_2020_06_how_it_works" viewBox="0 0 72 72"><title>Group 3</title><g fill="none" fill-rule="evenodd"><circle fill="#7DA2F0" fill-rule="nonzero" cx="36" cy="36" r="36"></circle><g fill="#B5CDFF" fill-rule="nonzero"><path d="M52.204 40H37.296A5.296 5.296 0 0 0 32 45.296v7.452a5.296 5.296 0 0 0 5.296 5.296h14.908a5.296 5.296 0 0 0 5.296-5.296v-7.452A5.296 5.296 0 0 0 52.204 40zm-3.582 9.385L41.65 52.71a.28.28 0 0 1-.4-.252v-6.86a.28.28 0 0 1 .406-.25l6.973 3.534a.28.28 0 0 1-.006.503z"></path><g transform="translate(33 10)"><path d="M15.506 0H7.048A7.049 7.049 0 0 0 0 7.048v8.458a7.049 7.049 0 0 0 7.048 7.048h8.458a7.049 7.049 0 0 0 7.048-7.048V7.048A7.049 7.049 0 0 0 15.506 0zm4.934 15.506a4.94 4.94 0 0 1-4.934 4.934H7.048a4.94 4.94 0 0 1-4.934-4.934V7.048a4.94 4.94 0 0 1 4.934-4.934h8.458a4.94 4.94 0 0 1 4.934 4.934v8.458z"></path><path d="M11.277 5.639a5.639 5.639 0 1 0 0 11.277 5.639 5.639 0 0 0 0-11.277zm0 9.162a3.529 3.529 0 0 1-3.524-3.524 3.528 3.528 0 0 1 3.524-3.524 3.528 3.528 0 0 1 3.524 3.524 3.529 3.529 0 0 1-3.524 3.524z"></path><circle cx="17.338" cy="5.216" r="1"></circle></g></g><path d="M19.598 53.979c-.28 0-.54-.111-.73-.31l-2.59-2.724a1 1 0 1 1 1.45-1.38l1.81 1.906 5.01-6.105a.998.998 0 0 1 1.54 1.268l-5.72 6.98c-.18.22-.45.354-.74.365h-.03M19.598 25.979c-.28 0-.54-.111-.73-.31l-2.59-2.724a1 1 0 1 1 1.45-1.38l1.81 1.906 5.01-6.105a.998.998 0 0 1 1.54 1.268l-5.72 6.98c-.18.22-.45.354-.74.365h-.03" fill="#FFF"></path></g></symbol>
	<symbol id="svg_2020_06_door" viewBox="0 0 128 128"><path d="m38.166 27.985h49.575v78.279h-49.575z" fill="#2d8bfb"></path><path d="m30.167 19.985v88.03h7.999v-80.03h45.334v80.03h8v-88.03z" fill="#fd972c"></path><path d="m113.206 106.265h-98.412a1.75 1.75 0 1 0 0 3.5h98.412a1.75 1.75 0 0 0 0-3.5z" fill="#2d8bfb"></path><path d="m51.833 113.206 46-5.191v-88.03l-46-5.191z" fill="#ec8722"></path><circle cx="61.125" cy="64" fill="#c4c9f3" r="3.458"></circle></symbol>
	<symbol id="svg_2020_06_get" viewBox="0 0 509.287 509.287"><circle style="fill:#4B5AA7;" cx="254.644" cy="254.644" r="254.644"></circle><circle style="fill:#FBD303;" cx="290.246" cy="167.841" r="142.411"></circle><circle style="fill:#F8B517;" cx="290.246" cy="167.841" r="117.658"></circle><circle style="fill:#FBD303;" cx="290.246" cy="167.841" r="95.279"></circle><path style="fill:#FCFCFD;" d="M328.223,194.967c0-21.023-16.954-37.976-37.976-37.976c-8.816,0-16.275-7.121-16.275-16.275 c0-8.816,7.121-16.275,16.275-16.275c4.408,0,8.816,1.695,11.868,5.086c4.069,4.408,10.85,4.408,15.258,0.339 s4.408-10.85,0.339-15.258c-4.747-4.747-10.511-8.477-16.615-10.172v-7.46c0-6.103-4.747-10.85-10.85-10.85 s-10.85,4.747-10.85,10.85v7.46c-15.597,4.747-27.126,18.988-27.126,36.281c0,21.023,16.954,37.976,37.976,37.976 c8.816,0,16.276,7.121,16.276,16.275c0,8.816-7.121,16.275-16.276,16.275c-4.408,0-8.816-1.695-11.868-5.086 c-4.069-4.408-10.85-4.408-15.258-0.339s-4.408,10.85-0.339,15.258c4.747,4.747,10.511,8.477,16.615,10.172v7.46 c0,6.103,4.747,10.85,10.85,10.85c6.103,0,10.85-4.747,10.85-10.85v-7.46C316.694,226.501,328.223,212.26,328.223,194.967z"></path><path style="fill:#F7CFA2;" d="M109.181,293.976l21.701-5.764c25.77-6.781,53.234-4.747,77.648,6.442l77.987,35.264 c12.885,5.764,17.632,22.04,9.494,33.568l0,0c-6.103,8.816-17.293,12.207-27.126,8.138L236.334,358.4 c-6.442-2.034-13.224,0.678-16.275,6.781l0,0c-3.391,7.121-0.339,15.597,7.121,18.649l48.148,18.649 c5.425,2.034,11.868,1.695,16.954-1.356l118.675-71.544c10.85-6.442,25.091-4.069,32.89,6.103l0,0 c9.494,11.868,6.442,29.499-6.442,37.637l-140.376,85.785c-7.121,4.408-15.936,5.086-23.735,1.695l-89.176-39.672 c-2.713-1.356-5.764-2.034-9.155-2.034h-65.78V293.976z"></path><path style="fill:#6EB1E1;" d="M96.975,454.358h28.143V282.109H1.695C9.155,351.958,44.758,412.991,96.975,454.358z"></path></symbol>
	<symbol id="svg_2020_06_credit" viewBox="0 -65 512.00002 512"><linearGradient id="a" gradientUnits="userSpaceOnUse" x1="185.7027809706" x2="483.9298581346" y1="178.272494156" y2="486.5240336666"><stop offset="0" stop-color="#ecf7ff"></stop><stop offset="1" stop-color="#c2e0ff"></stop></linearGradient><linearGradient id="b"><stop offset=".0029" stop-color="#c2e0ff" stop-opacity="0"></stop><stop offset=".0763" stop-color="#bfdcfd" stop-opacity=".07451"></stop><stop offset="1" stop-color="#9eb2e7"></stop></linearGradient><linearGradient id="c" gradientUnits="userSpaceOnUse" x1="483.5390313" x2="421.108635847" xlink:href="#b" y1="207.9093759102" y2="145.4789804572"></linearGradient><radialGradient id="d" cx="376.9759235504" cy="65.6717994984" gradientUnits="userSpaceOnUse" r="159.921260873"><stop offset="0" stop-color="#8be1e2"></stop><stop offset=".1873" stop-color="#87e1e1"></stop><stop offset=".3558" stop-color="#7ce2dd"></stop><stop offset=".5172" stop-color="#6ae2d7"></stop><stop offset=".6741" stop-color="#50e4ce"></stop><stop offset=".8278" stop-color="#2fe5c2"></stop><stop offset=".9772" stop-color="#07e7b4"></stop><stop offset="1" stop-color="#00e7b2"></stop></radialGradient><linearGradient id="e" gradientUnits="userSpaceOnUse" x1="487.267095647" x2="423.8144064214" y1="166.3183933332" y2="102.8657041076"><stop offset=".0029" stop-color="#00e7b2" stop-opacity="0"></stop><stop offset=".4308" stop-color="#1bc4b7" stop-opacity=".427451"></stop><stop offset="1" stop-color="#3b9abe"></stop></linearGradient><linearGradient id="f" gradientUnits="userSpaceOnUse" x1="403.6240291184" x2="441.6717693886" y1="82.6753268046" y2="120.7230670748"><stop offset="0" stop-color="#f9f9f9"></stop><stop offset="1" stop-color="#e6e6e6"></stop></linearGradient><linearGradient id="g" gradientUnits="userSpaceOnUse" x1="322.0961258516" x2="84.3769335106" xlink:href="#b" y1="417.7768605974" y2="180.0577686486"></linearGradient><linearGradient id="h" gradientUnits="userSpaceOnUse" x1="234.3213179398" x2="234.3213179398" xlink:href="#b" y1="356.9633819176" y2="389.5427590538"></linearGradient><linearGradient id="i"><stop offset="0" stop-color="#45425a"></stop><stop offset="1" stop-color="#2d3251"></stop></linearGradient><linearGradient id="j" gradientUnits="userSpaceOnUse" x1="247.820153544" x2="427.445391511" xlink:href="#i" y1="215.1151264574" y2="215.1151264574"></linearGradient><linearGradient id="k" gradientUnits="userSpaceOnUse" x1="247.820153544" x2="427.445391511" xlink:href="#i" y1="262.8175846016" y2="262.8175846016"></linearGradient><linearGradient id="l" gradientUnits="userSpaceOnUse" x1="247.820153544" x2="394.8881006588" xlink:href="#i" y1="310.520143138" y2="310.520143138"></linearGradient><linearGradient id="m" gradientUnits="userSpaceOnUse" x1="85.2358891738" x2="198.635504959" y1="158.9602474264" y2="324.658376664"><stop offset="0" stop-color="#ffc738"></stop><stop offset=".4286" stop-color="#ffbb23"></stop><stop offset="1" stop-color="#ffa700"></stop></linearGradient><linearGradient id="n"><stop offset="0" stop-color="#ffa700" stop-opacity="0"></stop><stop offset=".0206" stop-color="#fea600" stop-opacity=".019608"></stop><stop offset=".6348" stop-color="#ec8c00" stop-opacity=".635294"></stop><stop offset="1" stop-color="#e58200"></stop></linearGradient><linearGradient id="o" gradientUnits="userSpaceOnUse" x1="42.745994838" x2="142.0852814444" xlink:href="#n" y1="228.5252153568" y2="228.5252153568"></linearGradient><linearGradient id="p" gradientUnits="userSpaceOnUse" x1="58.9640535714" x2="129.6368494288" xlink:href="#n" y1="243.5532249514" y2="314.2260208088"></linearGradient><linearGradient id="q" gradientTransform="matrix(1.003922 0 0 -1.003922 0 1625.260085)" gradientUnits="userSpaceOnUse" x1="58.7337" x2="129.1304" xlink:href="#n" y1="1406.2483" y2="1476.645"></linearGradient><linearGradient id="r" gradientUnits="userSpaceOnUse" x1="235.8878378286" x2="147.8226956744" xlink:href="#n" y1="228.5252153568" y2="228.5252153568"></linearGradient><linearGradient id="s" gradientTransform="matrix(-1.003922 0 0 1.003922 427.507351 -64.674622)" gradientUnits="userSpaceOnUse" x1="211.0244" x2="263.6291" xlink:href="#n" y1="315.9197" y2="368.5244"></linearGradient><linearGradient id="t" gradientTransform="matrix(-1.003922 0 0 -1.003922 427.507351 1625.260085)" gradientUnits="userSpaceOnUse" x1="211.0244" x2="263.6291" xlink:href="#n" y1="1415.1443" y2="1467.749"></linearGradient><linearGradient id="u" gradientUnits="userSpaceOnUse" x1="132.8443802188" x2="132.8443802188" xlink:href="#n" y1="291.69760956" y2="321.7303377588"></linearGradient><path d="m441.074219 382.652344h-413.507813c-15.222656 0-27.566406-12.34375-27.566406-27.570313v-253.117187c0-15.222656 12.34375-27.566406 27.566406-27.566406h413.507813c15.226562 0 27.570312 12.34375 27.570312 27.566406v253.117187c0 15.226563-12.34375 27.570313-27.570312 27.570313zm0 0" fill="url(#a)"></path><path d="m467.699219 84.292969v160.164062c0 5.4375-4.417969 9.855469-9.855469 9.855469h-39.730469l-78.914062-78.910156c-19.226563-18.546875-31.1875-44.578125-31.1875-73.40625 0-9.496094 1.300781-18.6875 3.730469-27.410156h147.800781c4.625.804687 8.15625 4.84375 8.15625 9.707031zm0 0" fill="url(#c)"></path><path d="m512 101.996094c0 56.328125-45.664062 101.996094-101.996094 101.996094-56.328125 0-101.996094-45.667969-101.996094-101.996094 0-56.332032 45.667969-101.996094 101.996094-101.996094 56.332032 0 101.996094 45.664062 101.996094 101.996094zm0 0" fill="url(#d)"></path><path d="m512 101.996094c0-2.84375-.121094-5.660156-.351562-8.445313l-39.28125-39.28125c-4.160157-4.160156-10.90625-4.160156-15.066407 0l-57.015625 57.015625c-4.160156 4.160156-10.90625 4.160156-15.070312 0l-22.503906-22.503906c-4.160157-4.164062-10.90625-4.164062-15.070313 0l-9.996094 9.996094c-4.160156 4.160156-4.160156 10.90625 0 15.070312l88.816407 88.8125c48.503906-7.867187 85.539062-49.9375 85.539062-100.664062zm0 0" fill="url(#e)"></path><path d="m383.457031 159.65625c5.132813 5.132812 13.453125 5.132812 18.585938 0l80.324219-80.320312c4.160156-4.160157 4.160156-10.90625 0-15.070313l-9.996094-9.996094c-4.164063-4.160156-10.910156-4.160156-15.070313 0l-57.015625 57.015625c-4.160156 4.160156-10.90625 4.160156-15.070312 0l-22.503906-22.507812c-4.160157-4.160156-10.90625-4.160156-15.066407 0l-10 10c-4.160156 4.160156-4.160156 10.90625 0 15.070312zm0 0" fill="url(#f)"></path><path d="m452.921875 379.980469c-.671875-.644531-1.375-1.246094-2.109375-1.8125l-231.488281-231.492188c-4.574219-5.953125-11.765625-9.796875-19.855469-9.796875h-133.25c-13.820312 0-25.023438 11.203125-25.023438 25.023438v133.246094c0 8.089843 3.84375 15.28125 9.800782 19.855468l67.648437 67.648438h322.429688c4.242187 0 8.257812-.960938 11.847656-2.671875zm0 0" fill="url(#g)"></path><path d="m0 328.769531v26.3125c0 15.226563 12.34375 27.570313 27.566406 27.570313h413.507813c15.226562 0 27.570312-12.34375 27.570312-27.570313v-26.3125zm0 0" fill="url(#h)"></path><path d="m247.820312 205.460938h179.625v19.304687h-179.625zm0 0" fill="url(#j)"></path><path d="m247.820312 253.164062h179.625v19.304688h-179.625zm0 0" fill="url(#k)"></path><path d="m247.820312 300.867188h147.066407v19.304687h-147.066407zm0 0" fill="url(#l)"></path><path d="m199.46875 320.171875h-133.25c-13.820312 0-25.023438-11.203125-25.023438-25.023437v-133.246094c0-13.820313 11.203126-25.023438 25.023438-25.023438h133.25c13.820312 0 25.023438 11.203125 25.023438 25.023438v133.246094c0 13.820312-11.203126 25.023437-25.023438 25.023437zm0 0" fill="url(#m)"></path><path d="m41.195312 195.730469h70.078126v65.589843h-70.078126zm0 0" fill="url(#o)"></path><path d="m133.1875 308.957031c-2.285156 0-4.140625-1.851562-4.140625-4.140625v-14.84375c0-11.25-9.117187-20.367187-20.367187-20.367187h-67.480469v-8.285157h67.480469c15.824218 0 28.652343 12.824219 28.652343 28.648438v14.84375c0 2.289062-1.855469 4.144531-4.144531 4.144531zm0 0" fill="url(#p)"></path><path d="m133.1875 148.09375c-2.285156 0-4.140625 1.851562-4.140625 4.140625v14.84375c0 11.25-9.117187 20.367187-20.367187 20.367187h-67.480469v8.285157h67.480469c15.824218 0 28.652343-12.828125 28.652343-28.652344v-14.84375c0-2.289063-1.855469-4.140625-4.144531-4.140625zm0 0" fill="url(#q)"></path><path d="m190.140625 261.320312h34.351563v-65.589843h-34.351563zm0 0" fill="url(#r)"></path><path d="m168.222656 308.957031c2.289063 0 4.144532-1.851562 4.144532-4.140625v-14.84375c0-11.25 9.117187-20.367187 20.363281-20.367187h31.761719v-8.285157h-31.761719c-15.824219 0-28.648438 12.824219-28.648438 28.648438v14.84375c0 2.289062 1.851563 4.144531 4.140625 4.144531zm0 0" fill="url(#s)"></path><path d="m168.222656 148.09375c2.289063 0 4.144532 1.851562 4.144532 4.140625v14.84375c0 11.25 9.117187 20.367187 20.363281 20.367187h31.761719v8.285157h-31.761719c-15.824219 0-28.648438-12.828125-28.648438-28.652344v-14.84375c0-2.289063 1.851563-4.140625 4.140625-4.140625zm0 0" fill="url(#t)"></path><path d="m41.195312 278.75v16.398438c0 13.820312 11.203126 25.023437 25.023438 25.023437h133.25c13.820312 0 25.023438-11.203125 25.023438-25.023437v-16.398438zm0 0" fill="url(#u)"></path></symbol>
	<symbol id="svg_2020_06_group" viewBox="0 0 512 512"><g><g><path d="m159.125 168.917c-1.978 0-3.957-.755-5.466-2.264l-31.555-31.56c-3.017-3.018-3.016-7.91.003-10.927 3.018-3.016 7.912-3.016 10.93.003l31.555 31.56c3.017 3.018 3.016 7.91-.003 10.927-1.509 1.506-3.486 2.261-5.464 2.261z" fill="#cdbeb9"></path></g><g><path d="m352.875 168.888c-1.964 0-3.93-.744-5.436-2.234-3.034-3.002-3.059-7.894-.057-10.927l31.555-31.876c3.003-3.033 7.897-3.059 10.93-.057 3.034 3.002 3.059 7.894.057 10.927l-31.555 31.876c-1.512 1.526-3.503 2.291-5.494 2.291z" fill="#cdbeb9"></path></g><g><path d="m127.57 394.261c-1.978 0-3.957-.755-5.466-2.264-3.017-3.018-3.016-7.91.003-10.927l31.555-31.532c3.018-3.017 7.912-3.017 10.93.002 3.017 3.018 3.016 7.91-.003 10.927l-31.555 31.532c-1.509 1.508-3.486 2.262-5.464 2.262z" fill="#cdbeb9"></path></g><g><path d="m384.43 394.634c-1.992 0-3.982-.765-5.494-2.292l-31.555-31.876c-3.002-3.033-2.977-7.925.057-10.927 3.033-3.001 7.927-2.976 10.93.057l31.555 31.876c3.002 3.033 2.977 7.925-.057 10.927-1.507 1.49-3.472 2.235-5.436 2.235z" fill="#cdbeb9"></path></g><g><path d="m118.985 265.808h-35.516c-4.269 0-7.729-3.459-7.729-7.726s3.46-7.726 7.729-7.726h35.517c4.269 0 7.729 3.459 7.729 7.726-.001 4.267-3.461 7.726-7.73 7.726z" fill="#cdbeb9"></path></g><g><path d="m428.531 265.808h-35.517c-4.269 0-7.729-3.459-7.729-7.726s3.46-7.726 7.729-7.726h35.517c4.269 0 7.729 3.459 7.729 7.726s-3.46 7.726-7.729 7.726z" fill="#cdbeb9"></path></g><g><path d="m256 438.399c-4.269 0-7.729-3.459-7.729-7.726v-35.523c0-4.267 3.46-7.726 7.729-7.726s7.729 3.459 7.729 7.726v35.523c0 4.267-3.46 7.726-7.729 7.726z" fill="#cdbeb9"></path></g><g><path d="m256 128.77c-4.269 0-7.729-3.459-7.729-7.726v-35.524c0-4.267 3.46-7.726 7.729-7.726s7.729 3.459 7.729 7.726v35.523c0 4.267-3.46 7.727-7.729 7.727z" fill="#cdbeb9"></path></g><g><path clip-rule="evenodd" d="m478.95 129.285c15.893-13.464 26.013-33.632 26.013-55.999 0-40.376-32.932-73.286-73.273-73.286-40.369 0-73.274 32.91-73.274 73.286 0 22.373 10.116 42.535 26.013 55.999 12.773 10.817 81.745 10.824 94.521 0z" fill="#22a6fe" fill-rule="evenodd"></path></g><g><path clip-rule="evenodd" d="m431.69 0c40.456 0 73.274 32.795 73.274 73.286 0 40.463-32.818 73.286-73.274 73.286-8.154 0-16.021-1.35-23.343-3.819 28.597-9.965 49.155-37.189 49.155-69.209 0-32.307-20.931-59.732-49.959-69.496 7.58-2.612 15.677-4.048 24.147-4.048z" fill="#0182fc" fill-rule="evenodd"></path></g><g><path clip-rule="evenodd" d="m412.309 86.209c-16.395 7.438-27.88 23.979-27.88 43.076 12.748 10.769 29.258 17.288 47.26 17.288 18.003 0 34.483-6.519 47.26-17.288 0-19.097-11.485-35.638-27.88-43.076z" fill="#fd4755" fill-rule="evenodd"></path></g><g><path clip-rule="evenodd" d="m400.767 62.115c0 9.735 4.508 18.408 11.542 24.094 5.283 4.279 12.03 6.835 19.381 6.835 7.35 0 14.069-2.556 19.381-6.835 7.034-5.686 11.542-14.359 11.542-24.094 0-17.087-13.839-30.928-30.923-30.928s-30.923 13.842-30.923 30.928z" fill="#ffe5c1" fill-rule="evenodd"></path></g><g><path clip-rule="evenodd" d="m423.938 32.163c13.322 3.446 23.142 15.536 23.142 29.952 0 9.735-4.479 18.408-11.514 24.094 0 0 0 0-.029 0-3.359 2.699-7.293 4.738-11.628 5.83 2.498.661 5.082 1.005 7.781 1.005 7.35 0 14.069-2.556 19.381-6.835 7.034-5.686 11.542-14.359 11.542-24.094 0-17.087-13.839-30.928-30.923-30.928-2.67 0-5.283.316-7.752.976z" fill="#fed1a3" fill-rule="evenodd"></path></g><g><path clip-rule="evenodd" d="m439.988 91.895c13.236 9.706 22.223 31.015 22.596 47.843 5.943-2.757 11.427-6.289 16.366-10.453 0-19.097-11.485-35.638-27.88-43.076-3.215 2.585-6.976 4.566-11.082 5.686z" fill="#e41e2b" fill-rule="evenodd"></path></g><g><path clip-rule="evenodd" d="m122.996 494.322c15.915-13.464 26.051-33.568 26.051-55.953 0-40.376-32.933-73.286-73.274-73.286-40.369 0-73.274 32.91-73.274 73.286 0 22.388 10.131 42.496 26.047 55.96 12.769 10.8 81.679 10.798 94.45-.007z" fill="#22a6fe" fill-rule="evenodd"></path></g><g><path clip-rule="evenodd" d="m75.774 365.082c40.455 0 73.274 32.795 73.274 73.286 0 40.463-32.818 73.286-73.274 73.286-8.183 0-16.021-1.35-23.343-3.819 28.597-9.965 49.127-37.189 49.127-69.209 0-32.307-20.902-59.732-49.931-69.467 7.551-2.641 15.676-4.077 24.147-4.077z" fill="#0182fc" fill-rule="evenodd"></path></g><g><path clip-rule="evenodd" d="m56.364 451.292c-16.395 7.438-27.851 23.979-27.851 43.076 12.748 10.769 29.229 17.288 47.26 17.288 18.003 0 34.483-6.519 47.26-17.288 0-19.097-11.485-35.638-27.88-43.076z" fill="#fd4755" fill-rule="evenodd"></path></g><g><path clip-rule="evenodd" d="m44.85 427.198c0 9.735 4.479 18.408 11.514 24.094 5.312 4.279 12.059 6.835 19.409 6.835 7.322 0 14.069-2.556 19.381-6.835 7.034-5.686 11.542-14.359 11.542-24.094 0-17.087-13.868-30.928-30.923-30.928-17.083-.001-30.923 13.841-30.923 30.928z" fill="#ffe5c1" fill-rule="evenodd"></path></g><g><path clip-rule="evenodd" d="m68.021 397.246c13.322 3.446 23.142 15.536 23.142 29.952 0 9.735-4.508 18.408-11.542 24.094-3.359 2.699-7.322 4.738-11.628 5.858 2.498.632 5.082.976 7.781.976 7.322 0 14.069-2.556 19.381-6.835 7.034-5.686 11.542-14.359 11.542-24.094 0-17.087-13.868-30.928-30.923-30.928-2.699 0-5.284.345-7.753.977z" fill="#fed1a3" fill-rule="evenodd"></path></g><g><path clip-rule="evenodd" d="m84.071 457.006c13.236 9.678 22.195 30.986 22.597 47.814 5.915-2.757 11.427-6.289 16.366-10.453 0-19.097-11.485-35.638-27.88-43.076-3.216 2.585-6.977 4.567-11.083 5.715z" fill="#e41e2b" fill-rule="evenodd"></path></g><g><path clip-rule="evenodd" d="m482.794 495.233c16.295-13.458 26.706-33.808 26.706-56.52 0-40.348-32.904-73.286-73.274-73.286-40.341 0-73.274 32.939-73.274 73.286 0 22.406 10.142 42.513 26.063 55.973 12.77 10.795 81.106 11.015 93.779.547z" fill="#22a6fe" fill-rule="evenodd"></path></g><g><path clip-rule="evenodd" d="m436.226 365.427c40.484 0 73.274 32.824 73.274 73.286 0 40.491-32.789 73.286-73.274 73.286-8.154 0-15.993-1.321-23.314-3.791 28.597-9.965 49.127-37.189 49.127-69.209 0-32.307-20.902-59.732-49.931-69.496 7.552-2.64 15.677-4.076 24.118-4.076z" fill="#0182fc" fill-rule="evenodd"></path></g><g><path clip-rule="evenodd" d="m416.846 451.636c-16.395 7.438-27.88 24.008-27.88 43.105 12.777 10.769 29.258 17.259 47.26 17.259 18.031 0 34.512-6.49 47.26-17.259 0-19.097-11.456-35.667-27.851-43.105z" fill="#fdb440" fill-rule="evenodd"></path></g><g><path clip-rule="evenodd" d="m405.303 427.543c0 9.735 4.508 18.436 11.542 24.094 5.312 4.279 12.059 6.835 19.381 6.835 7.35 0 14.098-2.556 19.409-6.835 7.035-5.657 11.514-14.359 11.514-24.094 0-17.058-13.839-30.928-30.923-30.928-17.055-.001-30.923 13.869-30.923 30.928z" fill="#ffe5c1" fill-rule="evenodd"></path></g><g><path clip-rule="evenodd" d="m428.474 397.59c13.322 3.446 23.171 15.565 23.171 29.952 0 9.735-4.508 18.436-11.542 24.094-3.359 2.728-7.322 4.738-11.628 5.858 2.469.632 5.082.976 7.752.976 7.35 0 14.098-2.556 19.409-6.835 7.035-5.657 11.514-14.359 11.514-24.094 0-17.058-13.839-30.928-30.923-30.928-2.671.001-5.255.346-7.753.977z" fill="#fed1a3" fill-rule="evenodd"></path></g><g><path clip-rule="evenodd" d="m444.524 457.351c13.265 9.678 22.223 31.015 22.625 47.843 5.915-2.757 11.399-6.289 16.337-10.453 0-19.097-11.456-35.667-27.851-43.105-3.244 2.614-7.005 4.566-11.111 5.715z" fill="#fe9900" fill-rule="evenodd"></path></g><g><path clip-rule="evenodd" d="m127.57 129.285c15.916-13.464 26.047-33.571 26.047-55.959 0-40.376-32.904-73.286-73.274-73.286-40.341 0-73.274 32.91-73.274 73.286 0 22.385 10.137 42.49 26.052 55.954 12.772 10.804 81.682 10.806 94.449.005z" fill="#22a6fe" fill-rule="evenodd"></path></g><g><path clip-rule="evenodd" d="m80.31 0c40.484 0 73.274 32.795 73.274 73.286 0 40.463-32.789 73.286-73.274 73.286-8.154 0-15.993-1.35-23.343-3.819 28.626-9.965 49.155-37.189 49.155-69.209 0-32.307-20.902-59.732-49.931-69.496 7.552-2.612 15.678-4.048 24.119-4.048z" fill="#0182fc" fill-rule="evenodd"></path></g><g><path clip-rule="evenodd" d="m60.929 86.209c-16.395 7.438-27.88 23.979-27.88 43.076 12.777 10.769 29.258 17.288 47.26 17.288s34.512-6.519 47.26-17.288c0-19.097-11.485-35.638-27.88-43.076z" fill="#fdb440" fill-rule="evenodd"></path></g><g><path clip-rule="evenodd" d="m49.387 62.115c0 9.735 4.508 18.408 11.542 24.094 5.312 4.279 12.059 6.835 19.381 6.835 7.35 0 14.098-2.556 19.381-6.835 7.034-5.686 11.542-14.359 11.542-24.094 0-17.087-13.839-30.928-30.923-30.928s-30.923 13.842-30.923 30.928z" fill="#ffe5c1" fill-rule="evenodd"></path></g><g><path clip-rule="evenodd" d="m72.558 32.163c13.322 3.446 23.171 15.536 23.171 29.952 0 9.735-4.508 18.408-11.542 24.094-3.388 2.699-7.322 4.738-11.628 5.83 2.469.661 5.082 1.005 7.752 1.005 7.35 0 14.098-2.556 19.381-6.835 7.034-5.686 11.542-14.359 11.542-24.094 0-17.087-13.839-30.928-30.923-30.928-2.671 0-5.255.316-7.753.976z" fill="#fed1a3" fill-rule="evenodd"></path></g><g><path clip-rule="evenodd" d="m88.608 91.895c13.236 9.706 22.223 31.015 22.625 47.843 5.915-2.757 11.399-6.289 16.337-10.453 0-19.097-11.485-35.638-27.88-43.076-3.215 2.585-6.976 4.566-11.082 5.686z" fill="#fe9900" fill-rule="evenodd"></path></g><g><path clip-rule="evenodd" d="m337.316 368.284c33.75-25.006 55.699-65.121 55.699-110.202 0-75.469-61.559-137.039-137.015-137.039s-137.015 61.57-137.015 137.039c0 45.08 21.948 85.195 55.697 110.201 22.773 16.872 139.862 16.873 162.634.001z" fill="#f8f2f0" fill-rule="evenodd"></path></g><g><path clip-rule="evenodd" d="m211.898 318.675 36.206 32.554c6.144 3.992 9.647 3.992 15.792 0l36.206-32.554c-3.359-.948-6.747-1.809-10.021-2.728-7.666-2.068-9.676-11.946-11.255-15.134-1.83-5.731-5.427-21.123-8.24-20.089-10.537 3.934-18.634 3.934-29.172 0-2.814-1.034-5.895 12.105-8.24 20.089-1.579 3.188-3.589 13.066-11.255 15.134-3.274.919-6.662 1.781-10.021 2.728z" fill="#fed1a3" fill-rule="evenodd"></path></g><g><path clip-rule="evenodd" d="m174.63 358.65v9.706c22.769 16.828 50.907 26.793 81.37 26.793s58.602-9.965 81.37-26.793v-9.706c0-27.08-18.433-34.69-37.268-39.974l-36.206 21.222c-6.144 3.992-9.647 3.992-15.792 0l-36.206-21.222c-18.835 5.283-37.268 12.893-37.268 39.974z" fill="#fd4755" fill-rule="evenodd"></path></g><g><path clip-rule="evenodd" d="m197.743 248.548c0 18.465 15.304 41.094 35.431 52.265 2.67 1.465 5.427 2.757 8.24 3.791 10.537 3.934 18.634 3.934 29.172 0 2.814-1.034 5.57-2.326 8.24-3.791 20.127-11.171 35.431-33.8 35.431-52.265v-17.805c-15.052-4.799-20.07-28.943-36.35-24.75-12.576 3.245-17.227 4.882-21.907 4.882s-9.331-1.637-21.907-4.882c-16.28-4.193-17.9 17.228-36.35 24.75z" fill="#ffe5c1" fill-rule="evenodd"></path></g><g><path clip-rule="evenodd" d="m256 165.038c-29.143.488-58.257 22.428-58.257 65.705 23.573-1.666 20.07-19.671 36.35-15.479 12.576 3.245 17.227 4.882 21.907 4.882s9.331-1.637 21.907-4.882c16.28-4.193 12.777 13.813 36.35 15.479 0-43.277-29.114-65.217-58.257-65.705z" fill="#6d80aa" fill-rule="evenodd"></path></g><g><path clip-rule="evenodd" d="m283.248 246.71c0 20.906-19.639 47.154-43.671 56.056-.488.172-.947.345-1.436.517 1.091.488 2.182.919 3.273 1.321 10.537 3.934 18.634 3.934 29.172 0 2.814-1.034 5.57-2.326 8.24-3.791 20.127-11.171 35.431-33.8 35.431-52.265v-17.805c-21.304-1.493-20.501-16.34-32.129-16.11.747 4.48 1.12 9.218 1.12 14.244z" fill="#fed1a3" fill-rule="evenodd"></path></g><g><path clip-rule="evenodd" d="m243.682 166.531c18.491 6.548 34.168 22.572 38.446 48.101 11.628-.23 10.825 14.617 32.129 16.11 0-43.277-29.114-65.217-58.257-65.705-4.135.058-8.269.575-12.318 1.494z" fill="#49679b" fill-rule="evenodd"></path></g><g><path clip-rule="evenodd" d="m313.74 373.324v9.075c8.355-3.877 16.28-8.586 23.63-14.043v-9.706c0-27.08-18.433-34.69-37.268-39.974l-18.003 10.568c13.696 3.618 31.641 7.121 31.641 44.08z" fill="#e41e2b" fill-rule="evenodd"></path></g><g><path clip-rule="evenodd" d="m233.174 300.813c-1.177 2.384-2.613 8.529-6.489 12.348 1.866.919 3.79 1.752 5.714 2.47 10.566 3.934 23.113 7.524 33.679 3.618 2.125-.459 2.986-1.666 4.364.976 2.642 5.083 6.518 7.725 11.571 9.075l18.089-10.625c-3.359-.948-6.747-1.809-10.021-2.728-7.666-2.068-9.676-11.946-11.255-15.134-2.67 1.465-5.427 2.757-8.24 3.791-10.537 3.934-18.634 3.934-29.172 0-1.091-.402-2.182-.833-3.273-1.321-1.694-.747-3.331-1.58-4.967-2.47z" fill="#ffbc85" fill-rule="evenodd"></path></g><g><path clip-rule="evenodd" d="m230.102 123.484c65.32 10.453 115.193 67.055 115.193 135.316 0 26.104-7.293 50.514-19.955 71.305 7.207 5.944 12.03 14.703 12.03 28.545v9.706c33.766-24.955 55.644-65.045 55.644-110.274 0-75.67-61.329-137.039-137.015-137.039-8.842 0-17.513.833-25.897 2.441z" fill="#eee1dc" fill-rule="evenodd"></path></g><g><path clip-rule="evenodd" d="m83.468 258.082c0-21.854-17.744-39.572-39.594-39.572s-39.594 17.718-39.594 39.572c0 21.883 17.744 39.601 39.594 39.601s39.594-17.718 39.594-39.601z" fill="#80d261" fill-rule="evenodd"></path></g><g><path clip-rule="evenodd" d="m428.532 258.082c0-21.854 17.744-39.572 39.594-39.572s39.594 17.719 39.594 39.572c0 21.883-17.744 39.601-39.594 39.601s-39.594-17.718-39.594-39.601z" fill="#80d261" fill-rule="evenodd"></path></g><g><path clip-rule="evenodd" d="m256 430.673c21.85 0 39.594 17.719 39.594 39.572 0 21.883-17.744 39.601-39.594 39.601s-39.594-17.719-39.594-39.601c0-21.854 17.744-39.572 39.594-39.572z" fill="#80d261" fill-rule="evenodd"></path></g><g><path clip-rule="evenodd" d="m256 85.52c21.85 0 39.594-17.719 39.594-39.601 0-21.854-17.744-39.572-39.594-39.572s-39.594 17.719-39.594 39.572c0 21.882 17.744 39.601 39.594 39.601z" fill="#80d261" fill-rule="evenodd"></path></g><g><path clip-rule="evenodd" d="m32.935 220.032c15.332 5.456 26.3 20.102 26.3 37.304 0 18.063-12.088 33.312-28.626 38.079 4.135 1.465 8.614 2.269 13.265 2.269 21.85 0 39.594-17.719 39.594-39.601 0-21.854-17.744-39.572-39.594-39.572-3.79-.001-7.465.516-10.939 1.521z" fill="#4fc122" fill-rule="evenodd"></path></g><g><path clip-rule="evenodd" d="m245.061 7.869c15.332 5.456 26.3 20.102 26.3 37.304 0 18.092-12.088 33.312-28.626 38.079 4.135 1.465 8.614 2.269 13.265 2.269 21.85 0 39.594-17.719 39.594-39.601 0-21.796-17.658-39.486-39.451-39.572h-.143-.144c-3.761-.001-7.379.544-10.795 1.521z" fill="#4fc122" fill-rule="evenodd"></path></g><g><path clip-rule="evenodd" d="m483.487 257.335c0 18.063-12.088 33.312-28.626 38.079 4.135 1.465 8.614 2.269 13.265 2.269 21.85 0 39.594-17.719 39.594-39.601 0-21.854-17.744-39.572-39.594-39.572-3.79 0-7.465.517-10.939 1.522 15.332 5.456 26.3 20.102 26.3 37.303z" fill="#4fc122" fill-rule="evenodd"></path></g><g><path clip-rule="evenodd" d="m271.361 469.498c0 18.063-12.088 33.312-28.626 38.05 4.135 1.493 8.614 2.297 13.265 2.297 21.85 0 39.594-17.719 39.594-39.601 0-21.854-17.744-39.572-39.594-39.572-3.79 0-7.465.517-10.939 1.522 15.332 5.457 26.3 20.103 26.3 37.304z" fill="#4fc122" fill-rule="evenodd"></path></g></g></symbol>
	<symbol id="svg_2020_06_church" viewBox="-63 0 479 480"><path d="m224.5 200h88v80h-88zm0 0" fill="#807b75"></path><path d="m224.5 280h88v72h-88zm0 0" fill="#b79f86"></path><path d="m40.5 200h88v80h-88zm0 0" fill="#807b75"></path><path d="m40.5 280h88v72h-88zm0 0" fill="#b79f86"></path><path d="m112.5 136h128v32h-128zm0 0" fill="#68635e"></path><path d="m128.5 168h96v64h-96zm0 0" fill="#b79f86"></path><path d="m168.5 0h16v64h-16zm0 0" fill="#4f4b47"></path><path d="m154.898438 16h43.203124v16h-43.203124zm0 0" fill="#4f4b47"></path><path d="m272.5 304v-24l-96-96-96 96v24l-64 64v104h320v-104zm0 0" fill="#cfb9a0"></path><path d="m216.5 304h-24v-28.800781c0-3.199219-2.398438-6.398438-5.601562-7.199219l-10.398438-3.199219-10.398438 3.199219c-3.203124.800781-5.601562 4-5.601562 7.199219v28.800781h-24v-16h8v-12.800781c0-10.398438 6.398438-19.199219 16.800781-22.398438l15.199219-4.800781 15.199219 4.800781c9.601562 3.199219 16.800781 12.800781 16.800781 22.398438v12.800781h8zm0 0" fill="#99836e"></path><path d="m152.5 320h16v24h-16zm0 0" fill="#4f4b47"></path><path d="m184.5 320h16v24h-16zm0 0" fill="#4f4b47"></path><path d="m128.5 440h-32v-104c0-8.800781 7.199219-16 16-16s16 7.199219 16 16zm0 0" fill="#99836e"></path><path d="m256.5 440h-32v-104c0-8.800781 7.199219-16 16-16s16 7.199219 16 16zm0 0" fill="#99836e"></path><g fill="#4f4b47"><path d="m48.5 368h16v24h-16zm0 0"></path><path d="m48.5 408h16v24h-16zm0 0"></path><path d="m288.5 368h16v24h-16zm0 0"></path><path d="m288.5 408h16v24h-16zm0 0"></path></g><path d="m.5 464h352v16h-352zm0 0" fill="#b79f86"></path><path d="m176.5 48-64 88h128zm0 0" fill="#807b75"></path></symbol>
	<symbol id="svg_2020_06_content" viewBox="0 0 469.34 469.34"><path style="fill:#F0EAF9;" d="M42.667,0.003h383.996c23.564,0,42.667,19.103,42.667,42.667v341.336 c0,23.564-19.103,42.667-42.667,42.667H42.667C19.103,426.673,0,407.57,0,384.006V42.67C0,19.106,19.103,0.003,42.667,0.003z"></path><path style="fill:#E1D5F3;" d="M21.333,85.34h426.664c11.782,0,21.333,9.551,21.333,21.333v0.001 c0,11.782-9.551,21.333-21.333,21.333H21.333C9.551,128.007,0,118.456,0,106.674v-0.001C0,94.891,9.551,85.34,21.333,85.34z"></path><path style="fill:#5628B4;" d="M42.667,0.003h384c23.564,0,42.667,19.103,42.667,42.667c0,0,0,0,0,0v64l0,0H0l0,0v-64 C0,19.106,19.103,0.003,42.667,0.003L42.667,0.003L42.667,0.003z"></path><path style="fill:#6F48BF;" d="M42.667,0.003h384.004c11.782,0,21.333,9.551,21.333,21.333v0.001 c0,11.782-9.551,21.333-21.333,21.333H42.667c-11.782,0-21.333-9.551-21.333-21.333v-0.001C21.334,9.554,30.885,0.003,42.667,0.003z "></path><path style="fill:#421198;" d="M32.001,85.34h405.336c5.891,0,10.667,4.776,10.667,10.667v0c0,5.891-4.776,10.667-10.667,10.667 H32.001c-5.891,0-10.667-4.776-10.667-10.667v0C21.334,90.116,26.11,85.34,32.001,85.34z"></path><path style="fill:#D9C9EF;" d="M458.667,149.337c-5.891,0-10.667,4.775-10.667,10.666c0,0,0,0,0,0.001v224 c0,11.782-9.551,21.333-21.333,21.333H309.334c-5.891,0-10.667,4.776-10.667,10.667c0,5.891,4.776,10.667,10.667,10.667h117.333 c23.564,0,42.666-19.103,42.667-42.667v-224C469.334,154.112,464.558,149.337,458.667,149.337 C458.667,149.337,458.667,149.337,458.667,149.337L458.667,149.337z"></path><path style="fill:#DFD2F2;" d="M10.667,192L10.667,192c5.891,0,10.667,4.776,10.667,10.667v170.666 c0,5.891-4.776,10.667-10.667,10.667l0,0C4.776,384,0,379.224,0,373.333V202.667C0,196.776,4.776,192,10.667,192z"></path><circle style="fill:#F7B236;" cx="53.337" cy="53.34" r="10.667"></circle><circle style="fill:#B39DDD;" cx="95.997" cy="53.34" r="10.667"></circle><circle style="fill:#D80E70;" cx="138.667" cy="53.34" r="10.667"></circle><g><path style="fill:#B39DDD;" d="M405.334,298.67H192c-11.782,0-21.333-9.551-21.333-21.333V170.673 c0-11.782,9.551-21.333,21.333-21.333h213.334c11.782,0,21.333,9.551,21.333,21.333v106.664 C426.667,289.119,417.116,298.67,405.334,298.67z"></path><path style="fill:#B39DDD;" d="M106.664,234.67H64c-11.782,0-21.333-9.551-21.333-21.333v-42.664 c0-11.782,9.551-21.333,21.333-21.333h42.664c11.782,0,21.333,9.551,21.333,21.333v42.664 C127.997,225.119,118.446,234.67,106.664,234.67z"></path><path style="fill:#B39DDD;" d="M106.664,384H64c-11.782,0-21.333-9.551-21.333-21.333v-42.664c0-11.782,9.551-21.333,21.333-21.333 h42.664c11.782,0,21.333,9.551,21.333,21.333v42.664C127.997,374.449,118.446,384,106.664,384z"></path><path style="fill:#B39DDD;" d="M181.334,320h63.996c5.891,0,10.667,4.776,10.667,10.667l0,0c0,5.891-4.776,10.667-10.667,10.667 h-63.996c-5.891,0-10.667-4.776-10.667-10.667l0,0C170.667,324.776,175.443,320,181.334,320z"></path><path style="fill:#B39DDD;" d="M394.664,320h21.333c5.891,0,10.667,4.776,10.667,10.667l0,0c0,5.891-4.776,10.667-10.667,10.667 h-21.333c-5.891,0-10.667-4.776-10.667-10.667l0,0C383.997,324.776,388.773,320,394.664,320z"></path><path style="fill:#B39DDD;" d="M288.004,320H352c5.891,0,10.667,4.776,10.667,10.667l0,0c0,5.891-4.776,10.667-10.667,10.667 h-63.996c-5.891,0-10.667-4.776-10.667-10.667l0,0C277.337,324.776,282.113,320,288.004,320z"></path><path style="fill:#B39DDD;" d="M181.334,362.67h85.336c5.891,0,10.667,4.776,10.667,10.667l0,0c0,5.891-4.776,10.667-10.667,10.667 h-85.336c-5.891,0-10.667-4.776-10.667-10.667l0,0C170.667,367.446,175.443,362.67,181.334,362.67z"></path><path style="fill:#B39DDD;" d="M309.334,362.67h21.333c5.891,0,10.667,4.776,10.667,10.667l0,0c0,5.891-4.776,10.667-10.667,10.667 h-21.333c-5.891,0-10.667-4.776-10.667-10.667l0,0C298.667,367.446,303.443,362.67,309.334,362.67z"></path><path style="fill:#B39DDD;" d="M117.33,277.34H53.334c-5.891,0-10.667-4.776-10.667-10.667l0,0c0-5.891,4.776-10.667,10.667-10.667 h63.996c5.891,0,10.667,4.776,10.667,10.667l0,0C127.997,272.564,123.221,277.34,117.33,277.34z"></path></g><path style="fill:#F7B236;" d="M234.667,320.003h-21.331c-58.91,0-106.667,47.756-106.667,106.667c0,0.001,0,0.001,0,0.002v0.565 c0.076,11.653-10.209,20.767-21.862,20.767h-10.14c-5.891,0-10.667,4.776-10.667,10.667c0,5.891,4.776,10.667,10.667,10.667l0,0 h74.667C208.244,469.337,256,421.58,256,362.67v-42.667H234.667z"></path><path style="fill:#F58B04;" d="M256,362.67v-42.667h-21.333c0,58.91-47.756,106.667-106.667,106.667H106.67v0.566 c0.076,11.652-10.21,20.767-21.862,20.767H74.667c-5.891,0-10.667,4.776-10.667,10.667c0,5.891,4.776,10.667,10.667,10.667h74.667 C208.244,469.336,256,421.58,256,362.67L256,362.67z"></path><path style="fill:#D80E70;" d="M462.184,113.82c-6.537-6.537-16.207-8.82-24.977-5.896h0 c-75.189,26.567-137.135,81.272-172.798,152.597L256,277.337v42.667h42.667l16.816-8.408 c71.325-35.663,126.03-97.61,152.597-172.798v0C471.004,130.026,468.721,120.357,462.184,113.82L462.184,113.82z"></path><ellipse transform="matrix(-0.7071 -0.7071 0.7071 -0.7071 431.8294 605.5635)" style="fill:#E976AF;" cx="341.331" cy="213.347" rx="21.333" ry="56.757"></ellipse><path style="fill:#A60068;" d="M437.206,107.923c-3.693,1.305-7.198,2.986-10.826,4.424C423.602,207.998,351.052,287.119,256,298.16 v21.844h42.667l16.816-8.409c71.325-35.663,126.03-97.61,152.598-172.798c4.262-12.789-2.651-26.612-15.44-30.874 C447.631,106.253,442.216,106.253,437.206,107.923L437.206,107.923z"></path><path style="fill:#5628B4;" d="M234.667,320.003L256,341.337l42.667-21.334L256,277.337L234.667,320.003z"></path><path style="fill:#420F9B;" d="M246.199,331.535l9.801,9.801l42.667-21.333l-20.468-20.468c-8.837-8.837-23.163-8.837-32,0 c-1.72,1.72-3.151,3.705-4.239,5.881v0C237.605,314.128,239.312,324.649,246.199,331.535L246.199,331.535z"></path><ellipse transform="matrix(-0.7071 -0.7071 0.7071 -0.7071 10.0251 751.4755)" style="fill:#FBDA9E;" cx="160.648" cy="373.661" rx="16.617" ry="42.44"></ellipse></symbol>
	<symbol id="svg_2020_06_team" viewBox="0 0 512 512"><path style="fill:#5A4146;" d="M371.613,227.096v5.795c0,7.101,1.145,14.155,3.39,20.891l13.126,39.378h24.774v-90.839h-16.516 C382.705,202.322,371.613,213.413,371.613,227.096z"></path><path style="fill:#694B4B;" d="M484.684,244.251l-13.974,48.91l-66.065-57.806c-9.122,0-16.516-7.395-16.516-16.516l0,0 c0-13.682,11.092-24.774,24.774-24.774h57.806c9.122,0,16.516,7.395,16.516,16.516v15.522 C487.226,232.24,486.37,238.348,484.684,244.251z"></path><rect x="404.64" y="317.94" style="fill:#E6AF78;" width="49.548" height="36.549"></rect><path style="fill:#D29B6E;" d="M404.645,333.104c7.659,3.112,16.011,4.864,24.774,4.864s17.115-1.752,24.774-4.864v-15.169h-49.548 L404.645,333.104L404.645,333.104z"></path><path style="fill:#D5DCED;" d="M494.031,349.351l-39.84-11.382l-24.772,16.439l-24.774-16.44l-39.838,11.383 c-10.636,3.039-17.968,12.76-17.968,23.821v60.376c0,4.561,3.697,8.258,8.258,8.258h148.645c4.561,0,8.258-3.697,8.258-8.258 v-60.376C512,362.11,504.667,352.39,494.031,349.351z"></path><polygon style="fill:#AFB9D2;" points="437.677,441.805 421.161,441.805 425.29,354.484 433.548,354.484 "></polygon><path style="fill:#F0C087;" d="M429.419,326.193L429.419,326.193c-27.365,0-49.548-22.184-49.548-49.548v-9.675 c0-4.38,1.74-8.581,4.837-11.679l14.975-14.975c3.171-3.171,7.507-4.994,11.989-4.853c26.398,0.833,49.764,6.488,62.537,18.963 c3.127,3.054,4.759,7.326,4.759,11.696v10.523C478.968,304.01,456.784,326.193,429.419,326.193z"></path><path style="fill:#E6AF78;" d="M404.645,269.018c0-9.526,8-17.098,17.507-16.492c16.671,1.064,41.409,3.85,56.586,11.15 c-0.495-3.484-1.992-6.773-4.529-9.251c-12.773-12.475-36.139-18.13-62.537-18.963l-0.001,0.001v-0.001 c-4.481-0.141-8.818,1.683-11.988,4.853l-14.974,14.974c-3.098,3.097-4.838,7.298-4.838,11.679v9.675 c0,22.596,15.141,41.621,35.82,47.579c-6.883-8.492-11.045-19.272-11.045-31.063L404.645,269.018L404.645,269.018z"></path><path style="fill:#C7CFE2;" d="M478.968,397.779c0-6.571,2.61-12.872,7.256-17.518l21.257-21.257 c2.841,4.061,4.519,8.95,4.519,14.169v60.376c0,4.561-3.697,8.258-8.258,8.258h-24.774L478.968,397.779L478.968,397.779z"></path><path style="fill:#959CB5;" d="M433.548,371h-8.258c-2.28,0-4.129-1.849-4.129-4.129v-12.387h16.516v12.387 C437.677,369.151,435.829,371,433.548,371z"></path><g><path style="fill:#C7CFE2;" d="M429.419,354.409L415.422,365.1c-2.411,1.842-5.897,1.104-7.354-1.558l-12.556-22.93l5.054-7.709 c1.121-1.71,3.51-2.001,5.009-0.611L429.419,354.409z"></path><path style="fill:#C7CFE2;" d="M429.419,354.409l13.997,10.692c2.411,1.842,5.897,1.104,7.354-1.558l12.556-22.93l-5.054-7.709 c-1.121-1.71-3.51-2.001-5.009-0.611L429.419,354.409z"></path></g><path style="fill:#5A4146;" d="M147.822,322.745c-7.057-18.698-12.654-50.841-13.863-67.576 c-2.3-31.846-26.299-57.806-58.741-57.806s-56.441,25.961-58.741,57.806c-1.209,16.734-6.806,48.878-13.863,67.576 c-1.555,4.122,0.24,8.667,4.299,10.507c7.562,3.427,23.685,10.141,43.13,12.756h50.349c19.354-2.621,35.59-9.339,43.13-12.756 C147.582,331.412,149.377,326.867,147.822,322.745z"></path><path style="fill:#694B4B;" d="M143.523,333.253c4.058-1.84,5.854-6.385,4.298-10.507c-7.056-18.698-12.654-50.841-13.862-67.576 c-2.299-31.846-26.299-57.806-58.74-57.806c-0.082,0-0.163,0-0.245,0.001c-24.893,0.101-33.69,34.05-12.261,46.717 c1.287,0.761,2.112,1.127,2.112,1.127l18.769,100.8h16.799C119.747,343.386,135.983,336.669,143.523,333.253z"></path><path style="fill:#E6AF78;" d="M134.95,362.588l-26.724-13.361c-5.596-2.798-9.131-8.518-9.13-14.774l0.002-24.775h-49.55v24.776 c0,6.256-3.534,11.974-9.13,14.772l-26.724,13.362C5.301,366.784,0,375.362,0,384.745v48.802c0,4.56,3.697,8.258,8.258,8.258 h132.129c4.561,0,8.258-3.698,8.258-8.258v-48.801C148.645,375.362,143.343,366.784,134.95,362.588z"></path><path style="fill:#D29B6E;" d="M74.323,342.709c8.892,0,17.409-1.833,25.217-5.096c-0.205-1.041-0.444-2.076-0.444-3.161 l0.002-24.775h-49.55v24.776c0,1.091-0.239,2.131-0.446,3.176C56.915,340.875,65.428,342.709,74.323,342.709z"></path><path style="fill:#D5DCED;" d="M134.95,362.588l-19.038-9.519c-8.828,13.632-24.139,22.673-41.589,22.673 s-32.762-9.041-41.59-22.674l-19.038,9.52C5.302,366.784,0,375.362,0,384.745v48.802c0,4.561,3.697,8.258,8.258,8.258h132.129 c4.561,0,8.258-3.697,8.258-8.258v-48.801C148.645,375.362,143.343,366.784,134.95,362.588z"></path><path style="fill:#F0C087;" d="M74.323,326.193L74.323,326.193c-25.192,0-45.992-18.8-49.137-43.135 c-0.456-3.526,1.239-6.983,4.413-8.584c3.802-1.918,9.327-5.152,14.617-9.872c5.891-5.256,9.347-10.799,11.299-14.868 c1.681-3.504,5.545-5.486,9.311-4.525c29.076,7.416,48.871,22.543,56.053,28.719c1.928,1.658,3.039,4.103,2.841,6.639 C121.719,306.097,100.368,326.193,74.323,326.193z"></path><path style="fill:#E6AF78;" d="M120.878,273.927c-7.181-6.176-26.977-21.303-56.053-28.719c-3.766-0.961-7.63,1.021-9.311,4.525 c-1.478,3.082-3.921,7.008-7.546,11.016c-0.001,0.01-0.004,0.018-0.005,0.028c-1.125,1.275-2.323,2.553-3.747,3.825 c-5.29,4.721-10.815,7.954-14.617,9.872c-3.174,1.601-4.868,5.059-4.413,8.585c2.825,21.855,19.927,39.251,41.625,42.569 c-9.887-6.726-17.262-15.976-17.262-32.466v-11.776c1.876-1.385,3.765-2.766,5.663-4.46c4.59-4.096,8.597-8.833,11.81-13.933 c22.243,6.941,37.323,18.502,43.04,23.418c1.565,1.372,5.449,4.952,9.993,9.215c1.955-4.705,3.248-9.753,3.663-15.058 C123.917,278.031,122.806,275.586,120.878,273.927z"></path><path style="fill:#C7CFE2;" d="M5.034,369.859C1.853,374.081,0,379.26,0,384.745v48.802c0,4.561,3.697,8.258,8.258,8.258h24.774 v-41.61c0-5.017-2.281-9.763-6.199-12.897L5.034,369.859z"></path><path style="fill:#FF507D;" d="M374.643,351.318l-69.095-25.126L256,342.709l-49.548-16.516l-69.095,25.126 c-13.054,4.747-21.744,17.153-21.744,31.043v51.186c0,4.56,3.697,8.258,8.258,8.258h264.258c4.561,0,8.258-3.698,8.258-8.258 v-51.186C396.387,368.471,387.698,356.065,374.643,351.318z"></path><polygon style="fill:#707487;" points="247.349,359.226 239.484,441.805 272.516,441.805 264.651,359.226 "></polygon><path style="fill:#5B5D6E;" d="M264.67,370.571h-17.34c-3.193,0-5.781-2.588-5.781-5.781v-22.081h28.901v22.081 C270.451,367.982,267.863,370.571,264.67,370.571z"></path><path style="fill:#D23C69;" d="M387.498,359.855c5.576,5.985,8.889,13.956,8.889,22.506v51.186c0,4.561-3.697,8.258-8.258,8.258 h-41.29v-27.608c0-8.761,3.48-17.163,9.675-23.357L387.498,359.855z"></path><path style="fill:#5A4146;" d="M346.839,155.889V86.709c0-9.122-7.395-16.516-16.516-16.516h-99.097 c-36.486,0-66.065,29.578-66.065,66.065v19.631c0,8.876,1.431,17.694,4.238,26.114l2.749,8.247c0.842,2.526,1.271,5.171,1.271,7.834 v4.238H338.58v-4.238c0-2.663,0.429-5.308,1.271-7.834l2.749-8.247C345.408,173.582,346.839,164.764,346.839,155.889z"></path><path style="fill:#694B4B;" d="M206.452,103.741c0,18.528,15.02,33.548,33.548,33.548h4.645l2.242,65.032h91.693v-4.238 c0-2.663,0.429-5.308,1.271-7.834l2.749-8.247c2.807-8.42,4.238-17.238,4.238-26.114V86.709c0-9.122-7.395-16.516-16.516-16.516H240 C221.472,70.193,206.452,85.213,206.452,103.741z"></path><rect x="206.45" y="268.39" style="fill:#E6AF78;" width="99.1" height="74.32"></rect><path style="fill:#D29B6E;" d="M206.452,296.31c14.588,8.451,31.477,13.366,49.548,13.366s34.961-4.915,49.548-13.366v-27.924 h-99.097L206.452,296.31L206.452,296.31z"></path><g><path style="fill:#D23C69;" d="M256,342.709l-26.338,26.338c-3.54,3.54-9.391,3.141-12.417-0.847l-27.309-35.984l7.143-15.053 c2.108-4.442,7.606-6.07,11.792-3.49L256,342.709z"></path><path style="fill:#D23C69;" d="M256,342.709l26.338,26.338c3.54,3.54,9.391,3.141,12.417-0.847l27.309-35.984l-7.143-15.053 c-2.108-4.442-7.606-6.07-11.792-3.49L256,342.709z"></path></g><path style="fill:#F0C087;" d="M256,293.161L256,293.161c-45.608,0-82.581-36.973-82.581-82.581v-9.675 c0-4.38,1.74-8.581,4.837-11.679l6.841-6.841c3.097-3.097,4.837-7.298,4.837-11.679V150.91c0-3.824,2.568-7.146,6.289-8.025 c19.531-4.613,80.308-15.54,121.669,14.88c2.686,1.975,4.171,5.22,4.171,8.554v4.387c0,4.38,1.74,8.581,4.837,11.679l6.841,6.841 c3.097,3.097,4.837,7.298,4.837,11.679v9.675C338.581,256.188,301.608,293.161,256,293.161z"></path><path style="fill:#E6AF78;" d="M317.893,157.766c-29.09-21.395-67.731-22.321-94.925-19.392 c-11.471,1.235-20.949,3.144-26.743,4.512c-3.721,0.879-6.289,4.201-6.289,8.025v19.795c0,4.381-1.74,8.582-4.838,11.68 l-6.841,6.841c-3.098,3.098-4.838,7.299-4.838,11.68v9.674c0,42.224,31.71,76.985,72.602,81.92 c-14.249-14.839-23.054-34.948-23.054-57.146v-60.361c0-8.369,6.223-15.363,14.526-16.404c19.818-2.485,56.116-3.979,84.57,12.118 v-4.388C322.065,162.986,320.577,159.74,317.893,157.766z"></path><path style="fill:#D23C69;" d="M124.502,359.855c-5.576,5.985-8.889,13.956-8.889,22.506v51.186c0,4.561,3.697,8.258,8.258,8.258 h41.29v-27.608c0-8.761-3.48-17.163-9.675-23.357L124.502,359.855z"></path></symbol>
</svg>